<svg width="1198" height="1366" viewBox="0 0 1198 1366" fill="none" xmlns="http://www.w3.org/2000/svg">
<path d="M603.382 4C893.99 4.00005 1089.62 234.925 1089.62 479.471V1291.71H1043.91V479.558C1034.58 243.963 859.552 49.7178 619.546 49.7178H581.829C331.143 49.7178 162.829 265.793 157.469 474.15V1291.71H111.752V474.082C111.752 202.173 342.841 4 603.382 4Z" fill="#0B3D2E" stroke="#0B3D2E" stroke-width="8"/>
<path d="M1187.22 1302.89V1312.89C1187.22 1315.84 1186.15 1318.19 1185.26 1319.69C1184.33 1321.26 1183.18 1322.59 1182.1 1323.67C1179.93 1325.84 1177.13 1327.91 1174.08 1329.82C1167.91 1333.7 1159.41 1337.77 1149.36 1341.47C1129.23 1348.89 1101.79 1355.22 1072.15 1355.22H121.14C102.142 1355.22 79.4138 1350.18 60.8525 1343.52C51.5261 1340.18 42.8875 1336.3 36.0566 1332.2C32.6447 1330.16 29.4794 1327.93 26.8574 1325.55C24.3399 1323.26 21.7256 1320.28 20.2559 1316.61L14.7705 1302.89H1187.22Z" fill="#C5A059" stroke="#C5A059" stroke-width="20"/>
<path d="M628.292 298.718C617.515 290.635 628.292 261 595.963 261C563.634 261 571.716 287.941 550.163 301.412C493.587 325.659 437.011 336.435 423.541 384.929H752.22C733.361 331.047 663.315 320.271 628.292 298.718Z" fill="#C5A059"/>
<path d="M581.541 44H608.541V264H581.541V44Z" fill="#0B3D2E"/>
<path d="M611.903 612.882C622.68 607.494 625.374 599.412 625.374 585.941C625.374 575.165 614.598 559 595.739 559C582.269 559 568.798 569.776 568.798 585.941C568.798 596.718 576.88 604.8 590.351 612.882C501.446 620.965 415.235 677.541 412.541 788H778.937C778.937 691.012 703.502 620.965 611.903 612.882Z" fill="#C5A059"/>
<path d="M385.16 799.13C385.16 804.518 390.548 831.459 417.489 834.153H767.721C791.967 834.153 810.826 812.6 805.438 799.13H385.16Z" fill="#C5A059"/>
<path fill-rule="evenodd" clip-rule="evenodd" d="M983.4 761C961.331 761 942.021 769.275 933.745 802.376L903.401 973.399C892.366 987.191 892.366 989.95 864.781 989.95H757.196C707.541 989.95 702.024 1020.29 721.334 1034.08L707.541 1249.24H732.368L757.196 1034.08H925.47L969.607 1285.1C972.366 1293.38 988.917 1293.38 988.917 1282.34L958.573 1031.33C961.331 1025.81 964.09 1014.78 964.09 1009.26L988.917 777.551C994.434 769.275 994.434 761 983.4 761Z" fill="#0B3D2E"/>
<path fill-rule="evenodd" clip-rule="evenodd" d="M215.682 759C237.751 759 257.061 767.275 265.337 800.376L295.681 971.399C306.716 985.191 306.716 987.95 334.301 987.95H441.886C491.541 987.95 497.058 1018.29 477.748 1032.08L491.541 1247.24H466.714L441.886 1032.08H273.613L229.475 1283.1C226.716 1291.38 210.165 1291.38 210.165 1280.34L240.509 1029.33C237.751 1023.81 234.992 1012.78 234.992 1007.26L210.165 775.551C204.648 767.275 204.648 759 215.682 759Z" fill="#0B3D2E"/>
<path d="M630.322 1190.72L624.934 937.47C624.934 905.141 643.793 886.282 678.816 886.282L826.991 880.894C851.237 880.894 864.708 856.647 862.014 845.87C859.32 840.482 845.849 837.788 826.991 837.788H352.831C336.667 840.482 325.89 840.482 331.279 856.647C333.973 870.118 347.443 880.894 363.608 880.894L544.111 886.282C571.052 886.282 579.135 905.141 576.441 932.082L568.358 1201.49C568.358 1252.68 422.878 1228.44 422.878 1274.24V1282.32H767.721V1274.24C767.721 1231.13 633.016 1266.15 630.322 1190.72Z" fill="#0B3D2E"/>
<path d="M460.595 732.718H463.289C474.065 681.529 501.006 635.729 533.335 622.259C476.759 659.976 463.289 697.694 460.595 732.718Z" fill="white"/>
</svg>
