<svg width="6384" height="1515" viewBox="0 0 6384 1515" fill="none" xmlns="http://www.w3.org/2000/svg">
<g clip-path="url(#clip0_212_153)">
<path d="M2075.53 504.891V561.531H1846.53V1167H1684.42V561.531H1454.93V504.891H2075.53ZM2403.66 909.188C2389.01 915.372 2374.2 922.859 2359.22 931.648C2344.25 940.438 2330.74 950.366 2318.7 961.434C2306.98 972.176 2297.21 984.22 2289.4 997.566C2281.91 1010.59 2278.17 1024.58 2278.17 1039.56C2278.17 1056.16 2282.4 1069.18 2290.86 1078.62C2299.65 1088.06 2311.37 1092.78 2326.02 1092.78C2338.39 1092.78 2350.6 1089.2 2362.64 1082.04C2374.68 1074.55 2388.36 1064.95 2403.66 1053.23V909.188ZM2126.31 793.953C2131.52 773.12 2140.64 754.24 2153.66 737.312C2166.68 720.06 2182.79 705.574 2202 693.855C2221.53 681.811 2243.66 672.534 2268.4 666.023C2293.47 659.513 2320.49 656.258 2349.46 656.258C2385.26 656.258 2416.19 659.513 2442.23 666.023C2468.27 672.534 2489.59 681.811 2506.2 693.855C2523.12 705.574 2535.49 719.897 2543.3 736.824C2551.44 753.426 2555.51 772.143 2555.51 792.977V1079.11C2555.51 1099.62 2561.86 1117.03 2574.55 1131.36C2587.25 1145.68 2605.15 1157.56 2628.27 1167H2448.58C2443.37 1167 2438.32 1165.54 2433.44 1162.61C2428.56 1159.68 2424.16 1155.93 2420.26 1151.38C2416.35 1146.49 2412.93 1141.28 2410 1135.75C2407.07 1130.22 2404.96 1124.85 2403.66 1119.64C2394.54 1128.1 2385.92 1135.91 2377.78 1143.07C2369.64 1149.91 2360.69 1155.77 2350.92 1160.65C2341.16 1165.54 2330.25 1169.28 2318.21 1171.88C2306.16 1174.81 2291.68 1176.28 2274.75 1176.28C2251.64 1176.28 2230.8 1173.02 2212.25 1166.51C2194.02 1160 2178.4 1151.05 2165.38 1139.66C2152.68 1127.94 2142.91 1114.27 2136.08 1098.64C2129.24 1082.69 2125.82 1065.44 2125.82 1046.88C2125.82 1018.24 2133.8 993.66 2149.75 973.152C2165.7 952.645 2186.7 934.741 2212.74 919.441C2239.11 904.142 2268.89 890.796 2302.09 879.402C2335.3 868.009 2369.15 857.104 2403.66 846.688V797.859C2403.66 781.909 2402.03 768.4 2398.77 757.332C2395.52 745.939 2390.96 736.824 2385.1 729.988C2379.24 722.827 2372.08 717.781 2363.62 714.852C2355.48 711.596 2346.36 709.969 2336.27 709.969C2324.23 709.969 2313.49 712.247 2304.05 716.805C2294.61 721.362 2286.47 727.547 2279.63 735.359C2272.8 743.172 2267.26 752.124 2263.03 762.215C2258.8 772.306 2255.71 782.885 2253.75 793.953H2126.31ZM2722.02 467.781L2828.95 412.117H2874.36V701.668C2893.89 688.973 2915.21 678.556 2938.32 670.418C2961.44 662.28 2983.73 658.211 3005.22 658.211C3036.47 658.211 3065.28 664.233 3091.64 676.277C3118.01 687.996 3140.8 704.109 3160 724.617C3179.21 744.799 3194.18 768.4 3204.93 795.418C3215.67 822.436 3221.04 851.082 3221.04 881.355C3221.04 908.048 3217.62 933.927 3210.79 958.992C3203.95 983.732 3194.18 1007.01 3181.49 1028.82C3169.12 1050.63 3154.14 1070.65 3136.57 1088.88C3118.99 1107.1 3099.46 1122.73 3077.97 1135.75C3056.49 1148.45 3033.38 1158.37 3008.64 1165.54C2984.22 1172.7 2958.67 1176.28 2931.98 1176.28C2892.59 1176.28 2854.83 1171.07 2818.7 1160.65C2782.89 1149.91 2750.66 1132.98 2722.02 1109.87V467.781ZM2874.36 1076.67C2879.57 1081.23 2884.94 1085.62 2890.47 1089.85C2896.01 1094.08 2901.87 1097.83 2908.05 1101.08C2914.24 1104.34 2920.91 1106.94 2928.07 1108.89C2935.23 1110.85 2943.04 1111.82 2951.51 1111.82C2968.43 1111.82 2983.73 1106.78 2997.41 1096.69C3011.4 1086.27 3023.29 1072.11 3033.05 1054.21C3043.14 1035.98 3050.79 1014.66 3056 990.242C3061.53 965.503 3064.3 938.973 3064.3 910.652C3064.3 889.493 3061.53 869.637 3056 851.082C3050.47 832.202 3042.82 815.763 3033.05 801.766C3023.61 787.443 3012.38 776.212 2999.36 768.074C2986.34 759.936 2972.5 755.867 2957.86 755.867C2943.86 755.867 2929.21 760.099 2913.91 768.562C2898.61 776.701 2885.43 787.117 2874.36 799.812V1076.67ZM3478.85 1167H3327.97V467.781L3433.44 412.117H3478.85V1167ZM3848.97 1178.23C3813.49 1178.23 3780.12 1171.72 3748.87 1158.7C3717.62 1145.35 3690.44 1127.61 3667.33 1105.48C3644.22 1083.02 3625.82 1057.14 3612.15 1027.84C3598.81 998.217 3592.13 966.967 3592.13 934.09C3592.13 894.702 3598.32 858.243 3610.69 824.715C3623.06 790.861 3640.64 761.564 3663.42 736.824C3686.21 712.085 3713.39 692.879 3744.96 679.207C3776.87 665.21 3812.35 658.211 3851.41 658.211C3886.24 658.211 3918.14 663.745 3947.11 674.812C3976.08 685.88 4000.82 701.017 4021.33 720.223C4042.17 739.428 4058.28 762.052 4069.67 788.094C4081.07 814.135 4086.76 841.967 4086.76 871.59H3740.57C3741.87 899.259 3745.94 925.626 3752.78 950.691C3759.94 975.757 3769.38 997.892 3781.1 1017.1C3792.82 1035.98 3806.49 1051.11 3822.11 1062.51C3838.06 1073.58 3855.64 1079.11 3874.85 1079.11C3891.45 1079.11 3907.73 1076.34 3923.68 1070.81C3939.95 1064.95 3954.93 1057.14 3968.6 1047.37C3982.27 1037.28 3994.15 1025.72 4004.24 1012.7C4014.33 999.357 4021.66 985.034 4026.21 969.734L4103.36 981.941C4095.55 1008.96 4083.02 1034.35 4065.77 1058.11C4048.84 1081.88 4028.82 1102.71 4005.71 1120.61C3982.92 1138.52 3958.02 1152.68 3931 1163.09C3903.98 1173.18 3876.64 1178.23 3848.97 1178.23ZM3912.93 819.832C3911.63 805.184 3908.38 791.837 3903.17 779.793C3898.29 767.423 3891.94 756.844 3884.12 748.055C3876.31 739.266 3867.2 732.592 3856.78 728.035C3846.36 723.152 3835.13 720.711 3823.09 720.711C3813.65 720.711 3804.37 723.152 3795.26 728.035C3786.14 732.592 3777.84 739.266 3770.36 748.055C3763.19 756.518 3757.01 766.935 3751.8 779.305C3746.92 791.349 3743.66 804.858 3742.04 819.832H3912.93Z" fill="white"/>
<path d="M4310.88 667L4457.37 971.688L4605.8 667H4709.32L4463.23 1178.23H4394.38L4152.19 667H4310.88ZM5015.96 1178.23C4980.48 1178.23 4947.11 1171.72 4915.86 1158.7C4884.61 1145.35 4857.43 1127.61 4834.32 1105.48C4811.21 1083.02 4792.82 1057.14 4779.14 1027.84C4765.8 998.217 4759.12 966.967 4759.12 934.09C4759.12 894.702 4765.31 858.243 4777.68 824.715C4790.05 790.861 4807.63 761.564 4830.41 736.824C4853.2 712.085 4880.38 692.879 4911.96 679.207C4943.86 665.21 4979.34 658.211 5018.4 658.211C5053.23 658.211 5085.13 663.745 5114.11 674.812C5143.08 685.88 5167.82 701.017 5188.32 720.223C5209.16 739.428 5225.27 762.052 5236.66 788.094C5248.06 814.135 5253.75 841.967 5253.75 871.59H4907.56C4908.86 899.259 4912.93 925.626 4919.77 950.691C4926.93 975.757 4936.37 997.892 4948.09 1017.1C4959.81 1035.98 4973.48 1051.11 4989.11 1062.51C5005.06 1073.58 5022.63 1079.11 5041.84 1079.11C5058.44 1079.11 5074.72 1076.34 5090.67 1070.81C5106.94 1064.95 5121.92 1057.14 5135.59 1047.37C5149.26 1037.28 5161.14 1025.72 5171.23 1012.7C5181.33 999.357 5188.65 985.034 5193.21 969.734L5270.36 981.941C5262.54 1008.96 5250.01 1034.35 5232.76 1058.11C5215.83 1081.88 5195.81 1102.71 5172.7 1120.61C5149.91 1138.52 5125.01 1152.68 5097.99 1163.09C5070.97 1173.18 5043.63 1178.23 5015.96 1178.23ZM5079.93 819.832C5078.62 805.184 5075.37 791.837 5070.16 779.793C5065.28 767.423 5058.93 756.844 5051.12 748.055C5043.3 739.266 5034.19 732.592 5023.77 728.035C5013.36 723.152 5002.13 720.711 4990.08 720.711C4980.64 720.711 4971.36 723.152 4962.25 728.035C4953.14 732.592 4944.83 739.266 4937.35 748.055C4930.19 756.518 4924 766.935 4918.79 779.305C4913.91 791.349 4910.65 804.858 4909.03 819.832H5079.93ZM5709.81 771.98C5702.97 766.121 5696.62 761.076 5690.77 756.844C5685.23 752.612 5679.7 749.194 5674.16 746.59C5668.63 743.986 5662.77 742.195 5656.59 741.219C5650.73 739.917 5644.05 739.266 5636.57 739.266C5626.15 739.266 5615.9 741.056 5605.8 744.637C5595.71 747.892 5586.27 752.612 5577.48 758.797C5568.7 764.656 5560.72 771.655 5553.56 779.793C5546.72 787.605 5541.35 796.069 5537.45 805.184V1167H5386.08V712.41L5492.04 656.746L5537.45 705.574C5554.05 688.322 5572.44 674.487 5592.62 664.07C5613.13 653.654 5634.61 648.445 5657.07 648.445C5678.88 648.445 5698.58 653.003 5716.16 662.117C5733.73 670.906 5749.03 680.672 5762.05 691.414L5709.81 771.98ZM6057.95 909.188C6043.3 915.372 6028.49 922.859 6013.52 931.648C5998.55 940.438 5985.04 950.366 5972.99 961.434C5961.27 972.176 5951.51 984.22 5943.7 997.566C5936.21 1010.59 5932.46 1024.58 5932.46 1039.56C5932.46 1056.16 5936.7 1069.18 5945.16 1078.62C5953.95 1088.06 5965.67 1092.78 5980.32 1092.78C5992.69 1092.78 6004.89 1089.2 6016.94 1082.04C6028.98 1074.55 6042.65 1064.95 6057.95 1053.23V909.188ZM5780.61 793.953C5785.82 773.12 5794.93 754.24 5807.95 737.312C5820.97 720.06 5837.09 705.574 5856.29 693.855C5875.82 681.811 5897.96 672.534 5922.7 666.023C5947.76 659.513 5974.78 656.258 6003.75 656.258C6039.56 656.258 6070.49 659.513 6096.53 666.023C6122.57 672.534 6143.89 681.811 6160.49 693.855C6177.42 705.574 6189.79 719.897 6197.6 736.824C6205.74 753.426 6209.81 772.143 6209.81 792.977V1079.11C6209.81 1099.62 6216.16 1117.03 6228.85 1131.36C6241.55 1145.68 6259.45 1157.56 6282.56 1167H6102.88C6097.67 1167 6092.62 1165.54 6087.74 1162.61C6082.86 1159.68 6078.46 1155.93 6074.55 1151.38C6070.65 1146.49 6067.23 1141.28 6064.3 1135.75C6061.37 1130.22 6059.26 1124.85 6057.95 1119.64C6048.84 1128.1 6040.21 1135.91 6032.07 1143.07C6023.94 1149.91 6014.98 1155.77 6005.22 1160.65C5995.45 1165.54 5984.55 1169.28 5972.5 1171.88C5960.46 1174.81 5945.97 1176.28 5929.05 1176.28C5905.93 1176.28 5885.1 1173.02 5866.55 1166.51C5848.32 1160 5832.69 1151.05 5819.67 1139.66C5806.98 1127.94 5797.21 1114.27 5790.38 1098.64C5783.54 1082.69 5780.12 1065.44 5780.12 1046.88C5780.12 1018.24 5788.1 993.66 5804.05 973.152C5820 952.645 5840.99 934.741 5867.04 919.441C5893.4 904.142 5923.19 890.796 5956.39 879.402C5989.59 868.009 6023.45 857.104 6057.95 846.688V797.859C6057.95 781.909 6056.33 768.4 6053.07 757.332C6049.82 745.939 6045.26 736.824 6039.4 729.988C6033.54 722.827 6026.38 717.781 6017.91 714.852C6009.78 711.596 6000.66 709.969 5990.57 709.969C5978.53 709.969 5967.78 712.247 5958.34 716.805C5948.9 721.362 5940.77 727.547 5933.93 735.359C5927.09 743.172 5921.56 752.124 5917.33 762.215C5913.1 772.306 5910 782.885 5908.05 793.953H5780.61Z" fill="#C5A059"/>
<path d="M702.841 85C993.449 85 1189.08 315.925 1189.08 560.471V1372.71H1143.37V560.558C1134.04 324.963 959.011 130.718 719.005 130.718H681.288C430.602 130.718 262.288 346.793 256.928 555.15V1372.71H211.211V555.082C211.211 283.173 442.299 85 702.841 85Z" fill="white" stroke="white" stroke-width="8"/>
<path d="M1286.68 1383.89V1393.89C1286.68 1396.84 1285.61 1399.19 1284.72 1400.69C1283.79 1402.26 1282.64 1403.59 1281.56 1404.67C1279.39 1406.84 1276.59 1408.91 1273.54 1410.82C1267.36 1414.7 1258.87 1418.77 1248.82 1422.47C1228.69 1429.89 1201.25 1436.22 1171.61 1436.22H220.599C201.601 1436.22 178.873 1431.18 160.312 1424.52C150.985 1421.18 142.346 1417.3 135.516 1413.2C132.104 1411.16 128.938 1408.93 126.316 1406.55C123.799 1404.26 121.185 1401.28 119.715 1397.61L114.229 1383.89H1286.68Z" fill="#C5A059" stroke="#C5A059" stroke-width="20"/>
<path d="M727.751 379.718C716.974 371.635 727.751 342 695.422 342C663.093 342 671.175 368.941 649.622 382.412C593.046 406.659 536.47 417.435 523 465.929H851.679C832.82 412.047 762.774 401.271 727.751 379.718Z" fill="#C5A059"/>
<path d="M681 125H708V345H681V125Z" fill="white"/>
<path d="M711.362 693.882C722.139 688.494 724.833 680.412 724.833 666.941C724.833 656.165 714.057 640 695.198 640C681.728 640 668.257 650.776 668.257 666.941C668.257 677.718 676.339 685.8 689.81 693.882C600.905 701.965 514.694 758.541 512 869H878.396C878.396 772.012 802.961 701.965 711.362 693.882Z" fill="#C5A059"/>
<path d="M484.619 880.13C484.619 885.518 490.007 912.459 516.948 915.153H867.18C891.426 915.153 910.285 893.6 904.897 880.13H484.619Z" fill="#C5A059"/>
<path fill-rule="evenodd" clip-rule="evenodd" d="M1082.86 842C1060.79 842 1041.48 850.275 1033.2 883.376L1002.86 1054.4C991.825 1068.19 991.825 1070.95 964.24 1070.95H856.655C807 1070.95 801.483 1101.29 820.793 1115.08L807 1330.24H831.827L856.655 1115.08H1024.93L1069.07 1366.1C1071.82 1374.38 1088.38 1374.38 1088.38 1363.34L1058.03 1112.33C1060.79 1106.81 1063.55 1095.78 1063.55 1090.26L1088.38 858.551C1093.89 850.275 1093.89 842 1082.86 842Z" fill="white"/>
<path fill-rule="evenodd" clip-rule="evenodd" d="M315.141 840C337.21 840 356.52 848.275 364.796 881.376L395.14 1052.4C406.175 1066.19 406.175 1068.95 433.76 1068.95H541.345C591 1068.95 596.517 1099.29 577.207 1113.08L591 1328.24H566.173L541.345 1113.08H373.072L328.934 1364.1C326.175 1372.38 309.624 1372.38 309.624 1361.34L339.968 1110.33C337.21 1104.81 334.451 1093.78 334.451 1088.26L309.624 856.551C304.107 848.275 304.107 840 315.141 840Z" fill="white"/>
<path d="M729.781 1271.72L724.393 1018.47C724.393 986.141 743.252 967.282 778.275 967.282L926.45 961.894C950.696 961.894 964.167 937.647 961.473 926.87C958.779 921.482 945.308 918.788 926.45 918.788H452.29C436.126 921.482 425.349 921.482 430.738 937.647C433.432 951.118 446.902 961.894 463.067 961.894L643.57 967.282C670.511 967.282 678.594 986.141 675.899 1013.08L667.817 1282.49C667.817 1333.68 522.337 1309.44 522.337 1355.24V1363.32H867.18V1355.24C867.18 1312.13 732.475 1347.15 729.781 1271.72Z" fill="white"/>
<path d="M560.054 813.718H562.748C573.524 762.529 600.465 716.729 632.794 703.259C576.218 740.976 562.748 778.694 560.054 813.718Z" fill="white"/>
</g>
<defs>
<clipPath id="clip0_212_153">
<rect width="6384" height="1515" fill="white"/>
</clipPath>
</defs>
</svg>
